<?xml version="1.0" encoding="utf-8"?>
<!-- Generator: Adobe Illustrator 22.0.0, SVG Export Plug-In . SVG Version: 6.00 Build 0)  -->
<svg version="1.1" id="Capa_1" xmlns="http://www.w3.org/2000/svg" xmlns:xlink="http://www.w3.org/1999/xlink" x="0px" y="0px"
	 viewBox="0 0 31.4 31.4" style="enable-background:new 0 0 31.4 31.4;" xml:space="preserve">
<g>
	<path d="M15.3,0C20.7,0,26,2.5,26,8.5c0,5.5-6.3,7.6-7.7,9.6c-1,1.5-0.7,3.6-3.5,3.6c-1.8,0-2.7-1.5-2.7-2.8c0-5,7.4-6.2,7.4-10.3
		c0-2.3-1.5-3.6-4.1-3.6c-5.4,0-3.3,5.6-7.4,5.6c-1.5,0-2.8-0.9-2.8-2.6C5.3,3.7,10.1,0,15.3,0z M15,24.4c1.9,0,3.5,1.6,3.5,3.5
		S17,31.4,15,31.4s-3.5-1.6-3.5-3.5C11.6,26,13.1,24.4,15,24.4z"/>
</g>
</svg>
