<?xml version="1.0" encoding="utf-8"?>
<!-- Generator: Adobe Illustrator 22.0.0, SVG Export Plug-In . SVG Version: 6.00 Build 0)  -->
<svg version="1.1" id="Layer_1" xmlns="http://www.w3.org/2000/svg" xmlns:xlink="http://www.w3.org/1999/xlink" x="0px" y="0px"
	 viewBox="0 0 203.2 142.8" style="enable-background:new 0 0 203.2 142.8;" xml:space="preserve">
<style type="text/css">
	.st0{fill:#CE2B12;}
	.st1{fill:#F05B2B;}
	.st2{fill:#AA201D;}
</style>
<g>
	<path class="st0" d="M26.6,101.8c-1,0.1-21.9-5-21.9-5l5.7-2.4l-7.1-6.9l7.4-1l-2.2-6l8.1,5.3L13.5,74l19.8,21.1L26.6,101.8z"/>
	<path class="st0" d="M178.2,100.8c1,0,21.1-7.8,21.1-7.8l-6-1.7l6.1-7.7h-7.5l1.4-6.3l-7.4,6.3l1.6-12l-16.9,23.5L178.2,100.8z"/>
	<path class="st1" d="M185.9,88.4C183,81.5,174,78.2,167,79.1c-5.9,0.7-11.4,4.1-16.5,6.8c-13.4,6.9-26.9,9.9-26.9,9.9
		c-7.1,1.2-14.4,2.2-21.7,2.3c-7.3-0.1-14.6-1.1-21.7-2.3c0,0-13.4-3-26.9-9.9c-5.1-2.6-10.7-6.1-16.5-6.8
		c-7.1-0.8-16.1,2.4-18.9,9.4c-1.7,4.3-1.7,9.1-0.9,13.6c1,5.8,6.2,13.1,18.9,19.7c12.6,6.6,27.8,15.8,64.8,16.3c0.4,0,0.8,0,1.3,0
		l0,0c0,0,0,0,0,0c0,0,0,0,0,0l0,0c0.4,0,0.8,0,1.3,0c37-0.5,52.2-9.8,64.8-16.3c12.6-6.6,17.9-13.9,18.9-19.7
		C187.5,97.5,187.6,92.7,185.9,88.4z"/>
	<g>
		<g>
			<path class="st2" d="M55.9,113.3c-0.3,0-0.7-0.1-1-0.2c-1.6-0.6-2.4-2.3-1.8-3.8L60.3,89c0.6-1.6,2.3-2.4,3.8-1.8
				c1.6,0.6,2.4,2.3,1.8,3.8l-7.3,20.3C58.2,112.6,57.1,113.3,55.9,113.3z"/>
		</g>
		<g>
			<path class="st2" d="M88.2,120.7c-1.7,0-3-1.3-3-3V97.3c0-1.7,1.3-3,3-3c1.7,0,3,1.3,3,3v20.3C91.2,119.3,89.9,120.7,88.2,120.7z
				"/>
		</g>
		<g>
			<path class="st2" d="M148.2,112.3c-1.1,0-2.2-0.6-2.7-1.7l-8.7-18.4c-0.7-1.5-0.1-3.3,1.4-4c1.5-0.7,3.3-0.1,4,1.4l8.7,18.4
				c0.7,1.5,0.1,3.3-1.4,4C149.1,112.2,148.6,112.3,148.2,112.3z"/>
		</g>
		<g>
			<path class="st2" d="M121.2,122.6c-1.4,0-2.7-1-3-2.5l-3.8-22.5c-0.3-1.6,0.8-3.2,2.5-3.5c1.6-0.3,3.2,0.8,3.5,2.5l3.8,22.5
				c0.3,1.6-0.8,3.2-2.5,3.5C121.5,122.6,121.3,122.6,121.2,122.6z"/>
		</g>
	</g>
	<g>
		<path class="st1" d="M106,8.5c0,0-15.4,7.5-8.8,22.6c7,15.9,0.5,30,0.5,30c3-2.7,4.8-7,5.8-10.7c1.2-4.5,1.1-9,0.7-13.6
			c-0.5-4.7-3.2-9.1-3.2-13.7C101,17.8,103.2,12.8,106,8.5z"/>
		<path class="st1" d="M121.7,28.2c0,0-10.9,5.3-6.6,17c4.2,11.4,0.4,22.5,0.4,22.5c2.2-2,3.6-5.2,4.4-8.1c0.9-3.4,0.9-6.7,0.5-10.2
			c-0.4-3.5-2.4-6.9-2.4-10.3C118,35.3,119.6,31.5,121.7,28.2z"/>
		<path class="st1" d="M88.9,28.2c0,0-11.8,5.7-6.6,17c5.3,11.6,0.4,22.5,0.4,22.5c2.2-2,3.6-5.2,4.4-8.1C88,56.3,88,53,87.6,49.5
			c-0.4-3.5-2.4-6.9-2.4-10.3C85.2,35.3,86.8,31.5,88.9,28.2z"/>
	</g>
</g>
</svg>
